<svg width="379" height="371" viewBox="0 0 379 371" fill="none" xmlns="http://www.w3.org/2000/svg">
<path fill-rule="evenodd" clip-rule="evenodd" d="M216.593 360.015C207.919 361.322 199.039 362 190 362C180.961 362 172.081 361.322 163.407 360.015V313.319H216.593V360.015ZM311 314.183V201.626H69V314.183C34.5346 281.888 13 235.959 13 185C13 87.2456 92.2456 8 190 8C287.754 8 367 87.2456 367 185C367 235.959 345.465 281.888 311 314.183ZM249.67 56H130V175.67H249.67V56ZM218.825 134.72C218.825 140.198 207.162 151.736 189.752 151.736C172.341 151.736 160.679 140.198 160.679 134.72C160.679 132.727 162.595 131.814 164.427 132.644C170.425 135.882 177.673 139.7 189.752 139.7C201.831 139.7 209.079 135.965 215.16 132.644C216.909 131.814 218.825 132.727 218.825 134.72ZM175.007 91.3893C175.007 98.03 170.342 102.762 165.094 102.762C159.846 102.762 155.264 98.03 155.264 91.3893C155.264 84.6656 159.846 79.9341 165.094 79.9341C170.425 79.9341 175.007 84.6656 175.007 91.3893ZM224.407 91.3893C224.407 98.03 219.742 102.762 214.494 102.762C209.245 102.762 204.664 98.03 204.664 91.3893C204.664 84.6656 209.245 79.9341 214.494 79.9341C219.825 79.9341 224.407 84.6656 224.407 91.3893ZM216.593 226.89H163.407V280.077H216.593V226.89Z" fill="#72BF45"/>
</svg>
